<svg preserveAspectRatio="none" width="100%" height="100%" overflow="visible" style="display: block;" viewBox="0 0 242 50" fill="none" xmlns="http://www.w3.org/2000/svg">
<path id="Vector" d="M212.891 26.0388C214.274 21.8144 217.8 19.0443 222.571 19.0443C227.342 19.0443 231.145 21.8144 232.32 26.0388H212.891ZM9.61086 34.5568C9.61086 31.3019 11.616 29.0859 14.52 27.4931L25.652 38.8504C22.9554 40.8587 20.6046 41.6205 17.6314 41.6205C13.2754 41.6205 9.61086 38.9889 9.61086 34.5568ZM222.917 50C231.629 50 238.266 44.8753 241.17 37.5346H231.006C229.07 39.9584 226.789 41.4127 222.847 41.4127C217.523 41.4127 213.721 37.8116 212.614 33.3102H241.585C241.862 32.0637 242 31.0249 242 29.6399C242 19.1136 233.772 10.8726 222.571 10.8726C211.37 10.8726 202.934 19.5983 202.934 30.4017C202.934 41.205 211.646 50 222.917 50ZM181.5 49.2382H190.212L205.354 11.6343H195.121L185.994 38.1579L176.038 11.6343H165.666L181.5 49.2382ZM148.173 40.8587C142.019 40.8587 137.733 36.5651 137.733 30.4017C137.733 24.2382 142.019 20.0139 148.173 20.0139C154.327 20.0139 158.545 24.3075 158.545 30.4017C158.545 36.4958 154.258 40.8587 148.173 40.8587ZM147.897 50C159.236 50 168.086 41.2742 168.086 30.1939C168.086 19.1136 159.443 10.8726 148.381 10.8726C137.318 10.8726 128.26 19.5983 128.26 30.6787C128.26 41.759 136.903 50 147.897 50ZM105.512 40.8587C99.4274 40.8587 95.1406 36.5651 95.1406 30.4017C95.1406 24.2382 99.4274 20.0139 105.512 20.0139C111.597 20.0139 115.883 24.3075 115.883 30.4017C115.883 36.4958 111.597 40.8587 105.512 40.8587ZM106.895 50C117.543 50 125.494 41.6205 125.494 30.6787C125.494 19.7368 117.474 10.8726 107.102 10.8726C102.124 10.8726 98.1829 12.9501 95.4863 15.7895V0.761773H86.152V49.2382H94.7949V44.5291C97.4914 47.6454 101.709 50 106.895 50ZM62.0903 41.9668C58.3566 41.9668 56.2823 39.8892 56.2823 37.5346C56.2823 35.3878 57.7343 33.6565 61.2606 33.6565H72.3234C72.3234 38.7812 67.9674 41.9668 62.0903 41.9668ZM60.1543 50C65.1326 50 70.2491 47.7147 73.0149 44.3906V49.2382H81.6577V26.7313C81.6577 14.8199 73.4297 10.8726 64.856 10.8726C57.8034 10.8726 52.3411 12.9501 47.1554 18.0748L53.1017 24.0997C56.4206 20.9141 59.6011 19.1828 64.1646 19.1828C68.728 19.1828 72.3234 21.1219 72.3234 26.7313H61.0531C51.7189 26.7313 46.7406 31.3019 46.7406 38.2271C46.7406 45.1524 52.8251 50 60.1543 50ZM35.816 49.2382H47.916L37.9594 39.0582L44.3206 32.7562L38.4434 26.7313L32.0131 33.0332L20.7429 21.5374C17.2857 18.0748 14.3817 15.7202 14.3817 13.0886C14.3817 10.3186 16.5251 8.31025 19.2909 8.31025C22.0566 8.31025 24.2 10.5956 24.2 13.2271H32.8429C32.8429 5.95568 27.2423 0 19.2909 0C11.3394 0 5.73886 5.60942 5.73886 12.8809C5.73886 16.482 7.05257 19.6676 9.33429 21.9529C4.28686 24.3767 0 28.5319 0 35.4571C0 43.6981 6.01543 50 16.7326 50C22.264 50 26.8274 48.2687 31.3217 44.6676L35.816 49.2382Z" fill="var(--fill-0, #262626)"/>
</svg>
